<?xml version="1.0" encoding="utf-8"?>
<!DOCTYPE svg PUBLIC "-//W3C//DTD SVG 1.1//EN" "http://www.w3.org/Graphics/SVG/1.1/DTD/svg11.dtd">
<svg version="1.1" xmlns="http://www.w3.org/2000/svg" width="16" height="16" viewBox="0 0 16 16" enable-background="new 0 0 16 16">
 <defs>
 <style type="text/css"><![CDATA[
  .cc-base{fill: #777777;}
  ]]></style>
 </defs>
 <g class="cc-base">
   <path d="M0,14h4V5H0V14z M2,11c0.552,0,1,0.447,1,1s-0.448,1-1,1s-1-0.447-1-1S1.448,11,2,11z"/>
   <path d="M14,5h-3.5c0,0,0.75-1,0.75-3.5c0-0.829-0.672-1.5-1.5-1.5C8.921,0,8.308,0.73,8,1.5C7,4,5,5,5,5v8c1,1,2,1,3,1h4.5
			c1.484-0.047,2.259-1.423,2.555-2c0.67-1.311,0.969-2.665,0.945-4C15.975,6.615,16,4.984,14,5z"/>
 </g>
</svg>
